<svg width="589" height="261" viewBox="0 0 589 261" fill="none" xmlns="http://www.w3.org/2000/svg">
<path d="M80.9005 82.2313C87.9747 82.2313 94.2629 83.7472 99.7651 86.779C105.38 89.8108 109.759 94.3024 112.903 100.254C116.159 106.205 119.308 116.473 119.308 124.895V177.148H97.6576V124.961C97.6576 116.652 96.6771 110.023 92.5224 105.644C88.3677 101.152 82.6971 98.9063 75.5106 98.9063C68.324 98.9063 62.5973 101.152 58.3303 105.644C54.1755 110.023 54.5362 116.367 54.5362 124.677V177.167H32.8967V51.9131H54.4769V92.942C57.7333 89.0119 59.4532 87.565 64.3939 85.4315C69.4469 83.298 74.9491 82.2313 80.9005 82.2313Z" fill="#0C090D"/>
<path d="M131.895 129.772C131.895 120.452 133.804 112.199 137.622 105.012C141.552 97.8256 146.829 92.2672 153.454 88.3371C160.192 84.2947 167.603 82.2735 175.688 82.2735C182.987 82.2735 189.331 83.7332 194.721 86.6527C200.223 89.46 202.303 90.9178 205.559 95.1848V82.1128H227.229V177.127L205.6 177.195L207.655 164.282C204.399 168.662 200.167 170.814 194.552 173.733C188.938 176.653 182.592 177.195 175.405 177.195C167.433 177.195 160.079 176.091 153.454 172.049C146.829 167.894 141.552 162.167 137.622 154.869C133.804 147.458 131.895 139.092 131.895 129.772ZM207.859 130.109C207.859 123.708 206.511 118.15 203.816 113.434C201.234 108.718 197.809 105.124 193.542 102.654C189.275 100.184 184.671 98.9485 179.73 98.9485C174.789 98.9485 170.185 100.184 165.918 102.654C161.651 105.012 158.171 108.549 155.476 113.265C152.893 117.869 151.602 123.371 151.602 129.772C151.602 136.172 152.893 141.787 155.476 146.615C158.171 151.444 161.651 155.149 165.918 157.732C170.298 160.202 174.902 161.438 179.73 161.438C184.671 161.438 189.275 160.202 193.542 157.732C197.809 155.262 201.234 151.668 203.816 146.952C206.511 142.124 207.859 136.509 207.859 130.109Z" fill="#0C090D"/>
<path d="M270.583 97.2219C273.39 92.5058 277.095 88.8564 281.699 86.2737C286.415 83.5788 294.179 82.1128 300.579 82.1128V102.107H293.49C285.966 102.107 280.239 104.015 276.309 107.833C272.491 111.651 270.583 118.276 270.583 127.709V177.116H248.915V82.1128H270.583V97.2219Z" fill="#0C090D"/>
<path d="M443.269 82.1477V177.119H421.63V82.1477H443.269Z" fill="#0C090D"/>
<path d="M507.266 177.208C498.507 177.208 490.591 176.105 483.516 172.175C476.442 168.133 470.884 162.518 466.841 155.332C462.799 148.033 460.778 139.611 460.778 130.067C460.778 120.634 462.855 112.269 467.01 104.97C471.165 97.6711 476.835 92.0566 484.022 88.1265C491.208 84.1963 499.237 82.2313 508.108 82.2313C516.979 82.2313 525.007 84.1963 532.194 88.1265C539.381 92.0566 545.051 97.6711 549.206 104.97C553.361 112.269 555.438 120.634 555.438 130.067C555.438 139.499 553.304 147.865 549.037 155.163C544.77 162.462 538.931 168.133 531.52 172.175C524.221 176.105 516.137 177.208 507.266 177.208ZM507.266 161.395C512.206 161.395 516.81 160.216 521.077 157.858C525.457 155.5 528.994 151.963 531.689 147.247C534.384 142.531 535.731 136.804 535.731 130.067C535.731 123.329 534.44 117.659 531.857 113.055C529.274 108.339 525.85 104.801 521.583 102.443C517.316 100.085 512.712 98.9063 507.771 98.9063C502.83 98.9063 498.226 100.085 493.959 102.443C489.805 104.801 486.492 108.339 484.022 113.055C481.551 117.659 480.316 123.329 480.316 130.067C480.316 140.06 482.843 147.808 487.896 153.311C493.061 158.7 499.518 161.395 507.266 161.395Z" fill="#0C090D"/>
<path d="M449.685 54.1579C449.685 63.6988 441.951 71.4332 432.41 71.4332C422.869 71.4332 415.135 63.6988 415.135 54.1579C415.135 44.617 422.869 36.8826 432.41 36.8826C441.951 36.8826 449.685 44.617 449.685 54.1579Z" fill="#0C090D"/>
<path d="M503.048 54.2599C503.048 63.8008 495.313 71.5352 485.772 71.5352C476.231 71.5352 468.497 63.8008 468.497 54.2599C468.497 44.719 476.231 36.9846 485.772 36.9846C495.313 36.9846 503.048 44.719 503.048 54.2599Z" fill="#0C090D"/>
<path d="M555.412 54.1579C555.412 63.6988 547.678 71.4332 538.137 71.4332C528.596 71.4332 520.861 63.6988 520.861 54.1579C520.861 44.617 528.596 36.8826 538.137 36.8826C547.678 36.8826 555.412 44.617 555.412 54.1579Z" fill="#0C090D"/>
<path d="M333.029 95.5134C336.219 91.3329 340.565 87.8125 346.065 84.9521C351.566 82.0918 357.782 80.6616 364.713 80.6616C372.633 80.6616 379.839 82.6419 386.33 86.6023C392.931 90.4528 398.101 95.8984 401.842 102.939C405.582 109.98 407.453 118.066 407.453 127.197C407.453 136.328 405.582 144.524 401.842 151.785C398.101 158.936 392.931 164.547 386.33 168.617C379.839 172.578 372.633 174.558 364.713 174.558C357.782 174.558 351.621 173.183 346.23 170.432C340.84 167.572 336.439 164.052 333.029 159.871V225.017H313.591V82.1468H333.029V95.5134ZM388.31 127.197C388.31 120.926 386.99 115.536 384.35 111.025C381.82 106.405 378.409 102.939 374.119 100.629C369.938 98.2087 365.428 96.9986 360.587 96.9986C355.856 96.9986 351.346 98.2087 347.055 100.629C342.875 103.049 339.465 106.57 336.824 111.19C334.294 115.811 333.029 121.256 333.029 127.527C333.029 133.798 334.294 139.299 336.824 144.029C339.465 148.65 342.875 152.17 347.055 154.59C351.346 157.011 355.856 158.221 360.587 158.221C365.428 158.221 369.938 157.011 374.119 154.59C378.409 152.06 381.82 148.43 384.35 143.699C386.99 138.969 388.31 133.468 388.31 127.197Z" fill="#0C090D"/>
</svg>
